<svg width="123" height="45" viewBox="0 0 123 45" fill="none" xmlns="http://www.w3.org/2000/svg">
<path d="M87.0149 35.5434C86.3189 34.9479 85.6389 34.3666 84.9595 33.7853C83.7268 32.7311 82.4929 31.6786 81.2613 30.6232C80.219 29.7299 79.1774 28.8366 78.1437 27.9336C78.0576 27.8583 78.0239 27.7145 77.9886 27.5958C77.9657 27.5188 77.984 27.4298 77.984 27.3466C77.984 18.4104 77.984 9.47478 77.984 0.538613C77.984 0.385161 77.984 0.231708 77.984 0.0303376H78.4027C83.583 0.0303376 88.7627 0.028056 93.943 0.0394651C94.1353 0.0394651 94.3669 0.129027 94.5124 0.253957C95.7959 1.3555 97.0617 2.47702 98.3401 3.58484C98.5175 3.73886 98.5957 3.89403 98.5951 4.13305C98.5883 11.1958 98.5894 18.2586 98.5917 25.3214C98.5917 25.5183 98.5574 25.6546 98.3806 25.8041C96.5215 27.3757 94.6766 28.9632 92.8312 30.5502C91.4747 31.7174 90.1244 32.8914 88.7679 34.0591C88.1991 34.5485 87.6224 35.0294 87.0143 35.544L87.0149 35.5434ZM91.9516 6.62365H84.6509V28.9906H91.9516V6.62365Z" fill="#FFFBF5"/>
<path d="M66.0005 35.5839H59.2029C57.054 26.0584 54.9051 16.5347 52.7562 7.01094C52.779 6.99155 52.8024 6.97215 52.8252 6.95276C53.1128 7.19977 53.4031 7.44392 53.6878 7.69435C54.9228 8.78392 56.1584 9.87406 57.39 10.9682C58.2206 11.7064 59.0432 12.4525 59.8715 13.193C60.2012 13.4873 60.5315 13.7811 60.8692 14.0658C61.1174 14.2751 61.2457 14.5295 61.3165 14.8496C61.7112 16.6431 62.1271 18.4314 62.5361 20.2215C62.5458 20.2649 62.5612 20.3071 62.6422 20.3596C62.9343 19.0709 63.2269 17.7823 63.531 16.4423C64.1687 17.0076 64.7637 17.5358 65.3604 18.0629C66.3986 18.9808 67.4374 19.8975 68.4757 20.8148C68.6725 20.9888 68.8904 21.1457 69.0547 21.3465C69.1311 21.44 69.1437 21.6283 69.1146 21.7578C68.4363 24.8074 67.7483 27.8548 67.0621 30.9033C66.7375 32.346 66.4129 33.7887 66.0877 35.2313C66.0615 35.3466 66.0307 35.4607 65.9993 35.5839H66.0005Z" fill="#FFFBF5"/>
<path d="M102.597 22.1554V19.6289C102.597 14.4628 102.599 9.29621 102.592 4.13017C102.592 3.88145 102.66 3.71374 102.85 3.54831C104.116 2.44448 105.367 1.32468 106.635 0.223128C106.763 0.11189 106.972 0.0383009 107.143 0.0377304C110.866 0.0274623 114.588 0.0274623 118.311 0.0377304C118.482 0.0377304 118.691 0.111319 118.82 0.221417C120.136 1.34065 121.44 2.47414 122.745 3.60535C123.067 3.88374 123.092 4.58026 122.774 4.85636C121.674 5.80959 120.565 6.75255 119.461 7.70008C118.989 8.10453 118.501 8.49187 118.057 8.9237C117.784 9.18953 117.501 9.30648 117.127 9.27339C116.879 9.25171 116.628 9.2694 116.352 9.2694V6.63333H109.227C109.227 6.78222 109.227 6.92141 109.227 7.06117C109.227 10.0914 109.231 13.1223 109.218 16.1525C109.218 16.3276 109.133 16.5558 109.005 16.6682C107.785 17.7372 106.545 18.7852 105.313 19.8416C104.535 20.5096 103.76 21.1833 102.982 21.8525C102.878 21.9426 102.765 22.0242 102.598 22.1548L102.597 22.1554Z" fill="#FFFBF5"/>
<path d="M109.233 17.5741V28.9963H116.333V26.1737H122.959C122.965 26.3032 122.976 26.419 122.976 26.5348C122.977 28.2051 122.972 29.876 122.983 31.5462C122.984 31.7853 122.907 31.9399 122.726 32.0922C121.417 33.2006 120.118 34.3215 118.806 35.4276C118.692 35.524 118.51 35.5891 118.36 35.5896C114.601 35.5982 110.842 35.5988 107.083 35.5896C106.935 35.5896 106.757 35.5149 106.644 35.4173C105.374 34.3181 104.118 33.2028 102.848 32.1036C102.656 31.9376 102.591 31.767 102.592 31.52C102.6 28.9547 102.6 26.3888 102.592 23.8234C102.591 23.5776 102.654 23.399 102.843 23.2341C103.879 22.3328 104.909 21.4241 105.936 20.5131C106.758 19.784 107.573 19.0464 108.392 18.314C108.647 18.0858 108.905 17.8616 109.232 17.5747L109.233 17.5741Z" fill="#FFFBF5"/>
<path d="M67.2349 0.0462646H74.0051C72.4791 6.83068 70.96 13.5866 69.4238 20.4161C69.1922 20.2364 68.9868 20.0915 68.7974 19.9283C67.2788 18.6186 65.7637 17.3059 64.2469 15.9945C64.2024 15.9562 64.1493 15.9272 64.1003 15.8935C63.8179 15.699 63.7323 15.4811 63.8168 15.1114C64.9234 10.2739 66.0062 5.43136 67.0957 0.590479C67.1374 0.406792 67.1887 0.225387 67.2344 0.0462646H67.2349Z" fill="#FFFBF5"/>
<path d="M51.18 0.0296174C51.7505 0.0296174 52.2673 0.0296174 52.7836 0.0296174C54.4088 0.0296174 56.0346 0.0358932 57.6598 0.0233432C57.9154 0.0216319 58.0112 0.098643 58.0654 0.342227C58.9941 4.5191 59.932 8.69425 60.8664 12.87C60.8766 12.915 60.8738 12.963 60.8835 13.0976C60.6285 12.8951 60.4186 12.7399 60.2218 12.5705C59.0192 11.5357 57.8224 10.494 56.6182 9.46095C55.3974 8.41359 54.1709 7.37137 52.9445 6.33029C52.6461 6.07701 52.4664 5.78551 52.382 5.38562C52.0078 3.6155 51.5931 1.85336 51.1795 0.0290481L51.18 0.0296174Z" fill="#FFFBF5"/>
<path d="M98.5894 27.0219C98.5894 27.3185 98.5894 27.5296 98.5894 27.7401C98.5894 29.0036 98.5985 30.2672 98.5791 31.5307C98.5763 31.7047 98.4782 31.926 98.3487 32.0413C97.0577 33.1868 95.752 34.3151 94.4462 35.444C94.3623 35.5165 94.242 35.5889 94.1381 35.5895C92.4433 35.5986 90.7479 35.5958 88.9333 35.5958C92.1758 32.7167 95.3424 29.9049 98.5894 27.0219Z" fill="#FFFBF5"/>
<path d="M85.081 35.5758H78.004V29.2911C80.3691 31.391 82.6954 33.4572 85.081 35.5758Z" fill="#FFFBF5"/>
<path d="M122.956 9.25343H118.603C120.086 7.93511 121.501 6.67725 122.956 5.38403V9.25343Z" fill="#FFFBF5"/>
<path d="M53.3501 42.2815C53.5018 41.6318 53.6216 41.1167 53.7095 40.7373C53.7973 40.358 53.9131 39.8605 54.058 39.2467H55.0985L53.872 44.5091H52.8275L51.5976 39.2467H52.6421C52.7847 39.8634 52.8994 40.3608 52.9873 40.739C53.0751 41.1178 53.1955 41.6318 53.3501 42.2815Z" fill="#DE3845"/>
<path d="M57.2189 44.5091L56.9736 43.3369H55.9085L55.6632 44.5091H54.6262L55.7266 39.2467H57.1561L58.2565 44.5091H57.2194H57.2189ZM56.7705 42.3654L56.4413 40.7909L56.1122 42.3654H56.7711H56.7705Z" fill="#DE3845"/>
<path d="M61.2663 44.5091H58.7466V39.2467H59.7665V43.5377H61.2663V44.5091Z" fill="#DE3845"/>
<path d="M64.9526 43.9598L64.2971 44.5091H62.4049L61.7569 43.9598V39.7995L62.4049 39.2467H64.2971L64.9526 39.7995V43.9598ZM63.9326 43.5377V40.2182H62.7728V43.5377H63.9326Z" fill="#DE3845"/>
<path d="M68.7198 44.5091H67.6302L66.7649 42.3654H66.4637V44.5091H65.4437V39.2467H67.8864L68.5344 39.7995V41.7322L67.8407 42.3517L68.7204 44.5091H68.7198ZM66.4631 41.3905H67.5179V40.2148H66.4631V41.3905Z" fill="#DE3845"/>
<path d="M71.8037 44.5091L71.5584 43.3369H70.4934L70.2481 44.5091H69.211L70.3114 39.2467H71.741L72.8414 44.5091H71.8043H71.8037ZM71.3553 42.3654L71.0262 40.7909L70.697 42.3654H71.3559H71.3553Z" fill="#DE3845"/>
<path d="M75.4552 44.5091L74.3445 41.7521V44.5091H73.3319V39.2467H74.4215L75.5362 42.0071V39.2467H76.5453V44.5029L76.5487 44.5097H75.4552V44.5091Z" fill="#DE3845"/>
<path d="M80.077 40.2182H79.0679V44.5091H78.0479V40.2182H77.0388V39.2467H80.077V40.2182Z" fill="#DE3845"/>
<path d="M84.8221 39.2467L85.4809 39.8029V43.957L84.8221 44.5097H82.32V39.2473H84.8221V39.2467ZM84.4644 43.5377V40.2182H83.3394V43.5377H84.4644Z" fill="#DE3845"/>
<path d="M89.2476 44.5091H88.1581L87.2927 42.3654H86.9915V44.5091H85.9715V39.2467H88.4142L89.0622 39.7995V41.7322L88.3686 42.3517L89.2482 44.5091H89.2476ZM86.9909 41.3905H88.0457V40.2148H86.9909V41.3905Z" fill="#DE3845"/>
<path d="M92.3315 44.5091L92.0862 43.3369H91.0212L90.7759 44.5091H89.7388L90.8392 39.2467H92.2688L93.3692 44.5091H92.3321H92.3315ZM91.8831 42.3654L91.554 40.7909L91.2248 42.3654H91.8837H91.8831Z" fill="#DE3845"/>
<path d="M96.4913 40.2182H94.8792V41.3905H96.2671V42.3654H94.8792V44.5091H93.8592V39.2467H96.4907V40.2182H96.4913Z" fill="#DE3845"/>
<path d="M100.02 40.2182H99.0109V44.5091H97.991V40.2182H96.9818V39.2467H100.02V40.2182Z" fill="#DE3845"/>
<path d="M105.389 43.9598L104.723 44.5091H102.911L102.263 43.9598V39.7995L102.911 39.2467H104.723L105.389 39.8029V40.6135H104.373V40.2182H103.279V43.5377H104.373V43.1121H105.389V43.9598Z" fill="#DE3845"/>
<path d="M106.899 44.5091H105.879V39.2467H106.899V44.5091Z" fill="#DE3845"/>
<path d="M110.666 44.5091H109.576L108.711 42.3654H108.41V44.5091H107.39V39.2467H109.833L110.481 39.7995V41.7322L109.787 42.3517L110.667 44.5091H110.666ZM108.409 41.3905H109.464V40.2148H108.409V41.3905Z" fill="#DE3845"/>
<path d="M114.282 43.9598L113.616 44.5091H111.805L111.157 43.9598V39.7995L111.805 39.2467H113.616L114.282 39.8029V40.6135H113.266V40.2182H112.173V43.5377H113.266V43.1121H114.282V43.9598Z" fill="#DE3845"/>
<path d="M117.944 43.9564L117.279 44.5091H115.425L114.773 43.9598V39.2467H115.789V43.5377H116.927V39.2467H117.943V43.9564H117.944Z" fill="#DE3845"/>
<path d="M119.454 44.5091H118.434V39.2467H119.454V44.5091Z" fill="#DE3845"/>
<path d="M122.983 40.2182H121.974V44.5091H120.954V40.2182H119.945V39.2467H122.983V40.2182Z" fill="#DE3845"/>
<path d="M20.3225 6.09298C20.6607 7.51284 20.9157 8.9116 21.3356 10.2596C21.8673 11.9675 22.8884 13.4273 23.9397 14.8666C25.6608 17.2208 27.3391 19.6076 29.0265 21.987C30.4709 24.0241 31.5775 26.25 32.2387 28.6391C33.205 32.1285 32.545 35.3476 30.1474 38.1434C30.0675 38.2364 29.9312 38.2815 29.78 38.3733C29.7241 37.7281 29.6568 37.1651 29.6306 36.5998C29.533 34.4394 28.7954 32.4856 27.5404 30.7634C26.367 29.1536 25.0989 27.6037 23.7686 26.1188C22.5261 24.732 21.1011 23.5095 19.8484 22.1302C19.1308 21.3389 18.5444 20.4131 17.9967 19.4912C17.3607 18.4205 16.8142 17.3064 16.5615 16.0531C16.1861 14.1974 16.4051 12.4187 17.1159 10.7017C17.7879 9.07874 18.7434 7.61837 19.9705 6.3474C20.084 6.22932 20.2392 6.15116 20.323 6.09241H20.3219L20.3225 6.09298Z" fill="#DE3845"/>
<path d="M15.0566 20.8974C15.5991 21.736 16.0709 22.5808 16.6561 23.339C17.4057 24.3093 18.2061 25.2483 19.0589 26.1296C20.2979 27.4097 21.602 28.6277 22.8832 29.8684C23.9671 30.918 24.618 32.2158 25.0584 33.6317C25.3333 34.5147 25.6733 35.4035 25.529 36.3431C25.4246 37.023 25.1964 37.6853 25.0093 38.3516C24.9933 38.4081 24.8781 38.4378 24.8393 38.4617C24.3687 37.5912 23.9363 36.7002 23.4206 35.8593C22.4759 34.3179 21.0207 33.2809 19.6202 32.1998C18.4474 31.2957 17.1832 30.4947 16.0925 29.5033C14.9636 28.4782 14.1056 27.2101 13.8649 25.6436C13.6059 23.9659 13.9493 22.4114 14.9048 20.999C14.9299 20.9613 14.9853 20.9442 15.0583 20.8969H15.0566V20.8974Z" fill="#DE3845"/>
<path d="M46.3312 0V44.6096H0V0H46.3312ZM44.6352 42.8777V1.74959H1.7011V42.8777H44.6352Z" fill="#DE3845"/>
</svg>
